inDegrees=no
num_controls=7
num_derivatives=13
num_iterations=84
num_multipliers=7
num_parameters=0
num_slacks=7
num_states=26
objective=0.418416
objective_accelerations=0.069119
objective_balance=0.006461
objective_effort=0.036638
objective_height=0.305153
objective_ligament=0.001045
solver_duration=1077.541560
status=Solve_Succeeded
success=true
DataType=double
version=3
OpenSimVersion=4.5
endheader
time	/jointset/ground_pelvis/pelvis_tilt/value	/jointset/ground_pelvis/pelvis_tx/value	/jointset/ground_pelvis/pelvis_ty/value	/jointset/hip_l/hip_flexion_l/value	/jointset/hip_l/hip_adduction_l/value	/jointset/hip_l/hip_rotation_l/value	/jointset/back/lumbar_extension/value	/jointset/patellofemoral_l/patellar_flexion_l/value	/jointset/knee_l/knee_flexion_l/value	/jointset/knee_l/knee_adduction_l/value	/jointset/knee_l/knee_rotation_l/value	/jointset/ankle_l/ankle_angle_l/value	/jointset/subtalar_l/subtalar_angle_l/value	/jointset/ground_pelvis/pelvis_tilt/speed	/jointset/ground_pelvis/pelvis_tx/speed	/jointset/ground_pelvis/pelvis_ty/speed	/jointset/hip_l/hip_flexion_l/speed	/jointset/hip_l/hip_adduction_l/speed	/jointset/hip_l/hip_rotation_l/speed	/jointset/back/lumbar_extension/speed	/jointset/patellofemoral_l/patellar_flexion_l/speed	/jointset/knee_l/knee_flexion_l/speed	/jointset/knee_l/knee_adduction_l/speed	/jointset/knee_l/knee_rotation_l/speed	/jointset/ankle_l/ankle_angle_l/speed	/jointset/subtalar_l/subtalar_angle_l/speed	/forceset/tau_hip_flexion_l	/forceset/tau_hip_adduction_l	/forceset/tau_hip_rotation_l	/forceset/tau_knee_flexion_l	/forceset/tau_ankle_angle_l	/forceset/tau_subtalar_angle_l	/forceset/tau_lumbar_extension	lambda_cid13_p0	lambda_cid13_p1	lambda_cid13_p2	lambda_cid13_p3	lambda_cid13_p4	lambda_cid13_p5	lambda_cid14_p0	/jointset/ground_pelvis/pelvis_tilt/accel	/jointset/ground_pelvis/pelvis_tx/accel	/jointset/ground_pelvis/pelvis_ty/accel	/jointset/hip_l/hip_flexion_l/accel	/jointset/hip_l/hip_adduction_l/accel	/jointset/hip_l/hip_rotation_l/accel	/jointset/back/lumbar_extension/accel	/jointset/patellofemoral_l/patellar_flexion_l/accel	/jointset/knee_l/knee_flexion_l/accel	/jointset/knee_l/knee_adduction_l/accel	/jointset/knee_l/knee_rotation_l/accel	/jointset/ankle_l/ankle_angle_l/accel	/jointset/subtalar_l/subtalar_angle_l/accel	gamma_cid13_p0	gamma_cid13_p1	gamma_cid13_p2	gamma_cid13_p3	gamma_cid13_p4	gamma_cid13_p5	gamma_cid14_p0
0	-0.1565658521682498	0.05723409135791895	0.8978795916720815	0.3774924667018715	-0.260838686313043	-0.2435866772491087	-0.01265067647494873	0.03223648243720976	0.03223648243721463	-0.1745315218153059	0.1464912912064981	-0.04231377076293093	-0.01130623517665786	0	0	0	0	0	0	0	0	0	0	0	0	0	0.135421214421758	-0.0339067842497586	-0.04491960145090992	-0.292472222379172	0.3167175681533537	-0.07595427181534976	-0.08226087240930978	59.25312968690734	17.01379512379635	3.279780501571107	-15.46960550434318	-583.6410227513669	-39.16938481155915	-38.22700627971723	-2.659111095213981	-1.829644490477878	-1.064670546729286	13.80576022588375	-0.2160381184135196	3.926186597240468	-6.281961898275262	14.7162883973662	14.71628839736276	3.146756336551746	1.036696206255067	4.546157818267033	0.7750409182709604	3.049040975013886e-08	7.991320002727355e-07	-3.218598800075513e-07	1.986507712693708e-08	2.949750744637498e-07	3.904474594942174e-07	1.046192507146372e-07
0.01	-0.1566933119585154	0.05714430396518739	0.8978276632744466	0.3781650677496687	-0.2608500582640527	-0.2433895483952464	-0.01296555824115448	0.03295539052664108	0.03295539052662676	-0.1743788177821423	0.1465368872904637	-0.0420918833083272	-0.01126928945868038	-0.02545292402642595	-0.0178203486292707	-0.01036251249537654	0.1337949750781935	-0.002355374890942564	0.03913113716700723	-0.06252496000261866	0.1429466091523712	0.1429466091523696	0.03014478096360809	0.009114317468532439	0.04411792963449566	0.007252485385222935	0.1328665145183165	-0.04568091258957361	-0.04457971975308505	-0.291786514461246	0.3141017770164508	-0.06306889025720006	-0.07964616531597095	58.86464469146234	11.81753336916847	3.729165113949129	-16.17669754223035	-585.0906815314496	-49.66354160828271	-38.24835461451311	-2.482535612597759	-1.737656587516468	-1.018507551189891	13.05757823725722	-0.2575180661023662	3.862467538559282	-6.170054066338637	13.95857494017662	13.95857494017847	2.889025648922552	0.8481637887305713	4.305683242127424	0.6797659963755416	-2.528313330606442e-08	5.577518743478953e-07	-1.402868984018292e-08	6.77293811451857e-08	-5.258545016018275e-08	1.240227974706851e-07	5.788769130106509e-08
0.02	-0.1570741315002959	0.05688042777849132	0.8976728165618083	0.3801538609659486	-0.2608874301423116	-0.2428099301173031	-0.01389214781040717	0.03507871026079716	0.03507871026080027	-0.1739365286048847	0.1466734994034674	-0.04143660201616577	-0.01116393615730525	-0.050671950302557	-0.03481775879290053	-0.02058366300071634	0.2632384336951931	-0.005199985448620497	0.07649788481915756	-0.1223415606086465	0.2808823289449097	0.2808823289449184	0.05791702883352307	0.01820320580018762	0.08667876751245686	0.01368151667955228	0.1303118146150416	-0.05745504092929402	-0.04423983805507364	-0.2911008065431561	0.3114859858796468	-0.05018350869893746	-0.07703145822261979	58.60028216434101	6.6102538544351	4.168071363791312	-17.16844002989092	-584.716710927641	-59.94443238591148	-38.31124017687798	-2.612331545155433	-1.665056797349324	-1.036398148721936	12.93545693364495	-0.3138852517606316	3.573308694269131	-5.740290018957425	13.71411052539962	13.71411052539857	2.672249717813068	1.031610378879586	4.234739466960592	0.6103501000923099	-8.10566763622677e-08	3.16371748423055e-07	2.938025003271854e-07	1.155936851634343e-07	-4.001459747841153e-07	-1.424018645528471e-07	1.115613188749298e-08
0.03	-0.157704595130987	0.05644987275350037	0.8974160942884688	0.383417541163473	-0.2609535675161161	-0.2418655589509158	-0.01540377034337973	0.03856014765348495	0.03856014765349464	-0.1732238490564702	0.1469015369504869	-0.04036220496206305	-0.01099607225519925	-0.07520560654809588	-0.0512360181833235	-0.03076561593506989	0.3889220307671684	-0.007900546279746515	0.1122305800774522	-0.1796121823169792	0.414881733641191	0.4148817336411941	0.08467477870059854	0.02729506736772453	0.1280531159755266	0.01997847730994329	0.1224804261310178	-0.05110107689696059	-0.04265728323855555	-0.2815979918628644	0.2985634430232719	-0.05048026526238836	-0.07100806533728055	54.46694225991273	7.329015543262987	4.206353417676611	-14.60513749381198	-584.1600952382405	-57.25180368641379	-38.41317464784898	-2.34160355859127	-1.621602993339834	-1.009898939441878	12.2984698722082	-0.2291886548076022	3.55134743124459	-5.664833697327445	13.16434100667786	13.16434100667804	2.686012750909955	0.8315599786967509	4.066660172213505	0.6523677400053787	-8.595915765375617e-08	4.761224686499849e-07	2.414964894624479e-07	1.47086789266889e-07	-5.041777168771864e-07	-4.564998861250849e-08	3.390518549942285e-08
0.04	-0.1585739395030071	0.0558568566379166	0.8970573914710548	0.387920789087351	-0.2610429199294333	-0.2405682413340098	-0.01747697618355186	0.04336587620611253	0.04336587620611267	-0.1722418969833949	0.1472172102997779	-0.03887848889608182	-0.01076263900769088	-0.09844809856715243	-0.06730997691146723	-0.04097977181560682	0.5111519789685776	-0.00984299335162157	0.1470871749211465	-0.2346582220476288	0.5457405609348858	0.545740560934893	0.1117715337578842	0.03573036625549455	0.1685425698879239	0.02679538576004867	0.114649037646825	-0.04474711286465435	-0.04107472842209397	-0.272095177182713	0.2856409001668278	-0.0507770218258807	-0.06498467245201904	50.44672350030264	8.041414762513568	4.230297986853797	-12.30393479857999	-581.9496218097371	-54.35655888806346	-38.55117314454495	-2.354098699859375	-1.596196664893072	-1.042838737958609	12.24472715953168	-0.162262499910473	3.398088611349101	-5.295373623421141	13.0859950448823	13.08599504488322	2.740050755855066	0.900297842926178	4.057760556826594	0.7143396640352742	-8.981275107380722e-08	6.441439279728276e-07	1.817649692980793e-07	1.782423428566366e-07	-6.031882469593119e-07	5.859006336832231e-08	5.808682907064144e-08
0.05	-0.1596706214934892	0.05510545341445636	0.8965959397437183	0.3936289436348492	-0.2611489032985505	-0.2389284950733725	-0.02008798362539814	0.04946356104766129	0.04946356104765572	-0.1709900160380622	0.1476150558492456	-0.03699451583120078	-0.01045945954759854	-0.1207522843079398	-0.08284706990472505	-0.05134796023497019	0.6297855648235728	-0.01132773440459624	0.1805988535637603	-0.2870788138222755	0.6731027024814378	0.6731027024814432	0.1383818521643285	0.04376493282991009	0.2080597659939906	0.03381854178945128	0.1085209381319476	-0.04250472335649442	-0.04006564047423773	-0.2674637212495548	0.2791663711716203	-0.0488190702336135	-0.05991929669191701	48.58094555155068	7.53939783096927	4.28561693170932	-11.84622240843831	-580.2294523933832	-54.13193710542968	-38.72148963932361	-2.148166621141884	-1.513890033793838	-1.039538319142648	11.56866602394101	-0.1377986025729742	3.28821848734436	-5.14573408051656	12.45725616278809	12.45725616278739	2.588226856961489	0.7439718992717199	3.869868128288629	0.6928869059182069	-1.03538242727831e-07	3.972034196808893e-07	2.646295869220882e-07	1.81210963836807e-07	-7.183276020269726e-07	-5.345072870638577e-08	2.821304578342573e-08
0.06	-0.1609862629633693	0.05420239437761441	0.8960296602471444	0.4005026323859875	-0.2612689778171166	-0.2369615298269869	-0.0232092634101999	0.05681405379531792	0.05681405379531859	-0.1694786910139116	0.1480910342313911	-0.03472113700710188	-0.01008673186050706	-0.1422399944469063	-0.09764113958781365	-0.06194532566313216	0.7442588196968893	-0.01266122324086044	0.2125309720714511	-0.3367126906381906	0.7963021421578482	0.7963021421578487	0.1636603495276784	0.05135693278721813	0.2464237217317352	0.04070503115987394	0.1023928386170641	-0.04026233384829402	-0.03905655252629989	-0.2628322653163853	0.2726918421764323	-0.04686111864130339	-0.05485392093185198	46.81345339695476	7.030969931822863	4.329626556313071	-11.62503719833496	-577.080407820449	-53.72940726149132	-38.91986447821601	-2.190803579495645	-1.44759200285882	-1.088674139718324	11.41266096319591	-0.1320120565683994	3.082176584364555	-4.738030631675186	12.25345467085397	12.25345467085423	2.473686547236172	0.811784519504642	3.82711248316266	0.6870063322393802	-1.176793932548641e-07	1.327908285420129e-07	3.53498252452976e-07	1.829927666018373e-07	-8.341460655150768e-07	-1.745980826360639e-07	-3.936755476776677e-09
0.07000000000000001	-0.1625131299001185	0.05315486934790153	0.8953558866444077	0.4085021944065501	-0.2614012672720115	-0.2346840023729596	-0.02681289608822016	0.065377675469606	0.06537767546961132	-0.1677204344518629	0.1486418715415709	-0.03206936964667536	-0.009645347915488685	-0.1629801951165628	-0.1117600804732442	-0.07287187945490588	0.8550346068831104	-0.01372386690466611	0.2427554561785499	-0.3836050224787513	0.9158116953402718	0.9158116953402655	0.187864211659752	0.05869095429627958	0.2837579826362687	0.04759956823954192	0.0955544619998701	-0.03695571214431496	-0.0378887023431896	-0.2575139856012401	0.2645622869469553	-0.04499676067775295	-0.04940221763585491	44.48146758370378	6.650438917809922	4.3664811978202	-10.7626236556884	-574.1865536942288	-52.91915297438361	-39.14146564092741	-1.992632566139241	-1.378440627879228	-1.1041869175689	10.81718983111534	-0.08252160077451362	2.959668380413671	-4.603511088167769	11.7081322150516	11.70813221505044	2.374782968503542	0.6762219291297571	3.660821266163879	0.6947900328312624	-1.230950630627809e-07	-7.461574446066355e-08	4.042260069651444e-07	1.755782762620109e-07	-8.772769457786822e-07	-2.587571764962641e-07	-2.766546369067127e-08
0.08	-0.1642427996946424	0.05196927581003666	0.8945709393200205	0.417590944745934	-0.2615420093794433	-0.232110813266553	-0.03087318741022944	0.07511807799033761	0.07511807799033626	-0.1657239298840198	0.1492624512593451	-0.02904941200278967	-0.00913419607227328	-0.1828005660038001	-0.1252548412182151	-0.0841800699932299	0.9620964834605572	-0.01435175374798135	0.2716633025468976	-0.4280444194362215	1.031658311447297	1.03165831144728	0.2113099506842517	0.06530541430624962	0.3200617784234121	0.05465861079923995	0.0887160853826116	-0.0336490904403481	-0.03672085216008841	-0.252195705886149	0.256432731717451	-0.04313240271422028	-0.0439505143398861	42.23382026116609	6.265264186896262	4.392515800743785	-10.10807664706151	-570.075230794954	-51.9588167373356	-39.38116175015126	-2.00683762301222	-1.32275597476649	-1.165001489028377	10.66987884144103	-0.04506069247033989	2.818849036614375	-4.247443655057387	11.52086725577418	11.52086725577382	2.322061925721415	0.667872219686328	3.621019459685162	0.7199074282454888	-1.279477986307548e-07	-2.783445098416492e-07	4.524930575406212e-07	1.675704766896132e-07	-9.157183045439327e-07	-3.405299309971429e-07	-5.085087557899756e-08
